<svg width="16" height="16" viewBox="0 0 16 16" fill="none" xmlns="http://www.w3.org/2000/svg">
<g id="Frame" clip-path="url(#clip0_26_9026)">
<g id="Group">
<path id="Vector" d="M7.57348 7.70725C8.63229 7.70725 9.54916 7.32747 10.2983 6.57819C11.0475 5.82907 11.4272 4.91245 11.4272 3.85352C11.4272 2.7949 11.0475 1.87818 10.2982 1.12878C9.54891 0.379748 8.63216 0 7.57348 0C6.51451 0 5.59786 0.379749 4.84874 1.1289C4.09962 1.87806 3.71971 2.7948 3.71971 3.85352C3.71971 4.91245 4.09958 5.8292 4.84886 6.57835C5.59814 7.32738 6.51489 7.70725 7.57348 7.70725ZM14.3165 12.3032C14.2949 11.9914 14.2512 11.6513 14.1868 11.2922C14.1219 10.9304 14.0383 10.5883 13.9382 10.2757C13.8348 9.95259 13.6942 9.63352 13.5204 9.32771C13.3399 9.01034 13.128 8.73397 12.8902 8.50656C12.6416 8.26865 12.3371 8.07737 11.9851 7.93781C11.6342 7.79906 11.2454 7.72875 10.8296 7.72875C10.6662 7.72875 10.5083 7.79575 10.2032 7.99437C9.98637 8.13558 9.76888 8.27579 9.55075 8.415C9.34116 8.54856 9.05722 8.67368 8.7065 8.78697C8.36435 8.89768 8.01694 8.95384 7.67404 8.95384C7.33117 8.95384 6.98385 8.89768 6.64132 8.78697C6.29101 8.67378 6.00708 8.54869 5.7977 8.41512C5.55489 8.25997 5.3352 8.11837 5.14464 7.99422C4.83996 7.79563 4.68186 7.72859 4.51855 7.72859C4.10252 7.72859 3.71387 7.79903 3.36315 7.93797C3.01134 8.07725 2.70678 8.26853 2.45787 8.50669C2.22022 8.73422 2.00819 9.01043 1.828 9.32771C1.65431 9.63349 1.51369 9.95246 1.41016 10.2758C1.31016 10.5885 1.22656 10.9304 1.16163 11.2922C1.09728 11.6508 1.0536 11.991 1.03197 12.3035C1.01046 12.618 0.999797 12.9331 1 13.2484C1 14.0836 1.2655 14.7597 1.78906 15.2583C2.30615 15.7504 2.99034 16.0001 3.82237 16.0001H11.5265C12.3585 16.0001 13.0424 15.7506 13.5596 15.2584C14.0833 14.7601 14.3488 14.0838 14.3488 13.2482C14.3487 12.9259 14.3379 12.6079 14.3165 12.3032Z" fill="black"/>
</g>
</g>
<defs>
<clipPath id="clip0_26_9026">
<rect width="16" height="16" fill="white"/>
</clipPath>
</defs>
</svg>
